<mxfile host="app.diagrams.net" agent="Mozilla/5.0 (Windows NT 10.0; Win64; x64) AppleWebKit/537.36 (KHTML, like Gecko) Chrome/134.0.0.0 Safari/537.36" version="26.1.1">
  <diagram name="페이지-1" id="urzH1nlWNgo5C08hWxag">
    <mxGraphModel dx="1300" dy="712" grid="1" gridSize="10" guides="1" tooltips="1" connect="1" arrows="1" fold="1" page="1" pageScale="1" pageWidth="827" pageHeight="1169" math="0" shadow="0">
      <root>
        <mxCell id="0" />
        <mxCell id="1" parent="0" />
        <mxCell id="uyNf84cTJ33dFZTHsCJ2-20" style="rounded=0;orthogonalLoop=1;jettySize=auto;html=1;entryX=0;entryY=0.5;entryDx=0;entryDy=0;startArrow=none;startFill=0;endArrow=none;" edge="1" parent="1" source="uyNf84cTJ33dFZTHsCJ2-1" target="uyNf84cTJ33dFZTHsCJ2-3">
          <mxGeometry relative="1" as="geometry" />
        </mxCell>
        <mxCell id="uyNf84cTJ33dFZTHsCJ2-24" style="edgeStyle=none;shape=connector;rounded=0;orthogonalLoop=1;jettySize=auto;html=1;entryX=0;entryY=0.5;entryDx=0;entryDy=0;strokeColor=default;align=center;verticalAlign=middle;fontFamily=Helvetica;fontSize=11;fontColor=default;labelBackgroundColor=default;startArrow=none;startFill=0;endArrow=none;" edge="1" parent="1" source="uyNf84cTJ33dFZTHsCJ2-1" target="uyNf84cTJ33dFZTHsCJ2-10">
          <mxGeometry relative="1" as="geometry" />
        </mxCell>
        <mxCell id="uyNf84cTJ33dFZTHsCJ2-25" style="edgeStyle=none;shape=connector;rounded=0;orthogonalLoop=1;jettySize=auto;html=1;entryX=0;entryY=0.5;entryDx=0;entryDy=0;strokeColor=default;align=center;verticalAlign=middle;fontFamily=Helvetica;fontSize=11;fontColor=default;labelBackgroundColor=default;startArrow=none;startFill=0;endArrow=none;" edge="1" parent="1" source="uyNf84cTJ33dFZTHsCJ2-1" target="uyNf84cTJ33dFZTHsCJ2-11">
          <mxGeometry relative="1" as="geometry" />
        </mxCell>
        <mxCell id="uyNf84cTJ33dFZTHsCJ2-1" value="이용자" style="shape=umlActor;verticalLabelPosition=bottom;verticalAlign=top;html=1;outlineConnect=0;" vertex="1" parent="1">
          <mxGeometry x="80" y="210" width="50" height="100" as="geometry" />
        </mxCell>
        <mxCell id="uyNf84cTJ33dFZTHsCJ2-2" value="게시판 서비스" style="shape=umlFrame;whiteSpace=wrap;html=1;pointerEvents=0;width=92;height=30;" vertex="1" parent="1">
          <mxGeometry x="178" y="40" width="480" height="680" as="geometry" />
        </mxCell>
        <mxCell id="uyNf84cTJ33dFZTHsCJ2-27" style="edgeStyle=none;shape=connector;rounded=0;orthogonalLoop=1;jettySize=auto;html=1;strokeColor=default;align=center;verticalAlign=middle;fontFamily=Helvetica;fontSize=11;fontColor=default;labelBackgroundColor=default;startArrow=none;startFill=0;endArrow=classic;endFill=1;dashed=1;" edge="1" parent="1" source="uyNf84cTJ33dFZTHsCJ2-3" target="uyNf84cTJ33dFZTHsCJ2-14">
          <mxGeometry relative="1" as="geometry" />
        </mxCell>
        <mxCell id="uyNf84cTJ33dFZTHsCJ2-33" value="&amp;lt;&amp;lt;include&amp;gt;&amp;gt;" style="edgeLabel;html=1;align=center;verticalAlign=middle;resizable=0;points=[];fontFamily=Helvetica;fontSize=11;fontColor=default;labelBackgroundColor=default;" vertex="1" connectable="0" parent="uyNf84cTJ33dFZTHsCJ2-27">
          <mxGeometry x="0.1353" y="1" relative="1" as="geometry">
            <mxPoint as="offset" />
          </mxGeometry>
        </mxCell>
        <mxCell id="uyNf84cTJ33dFZTHsCJ2-3" value="&lt;font style=&quot;font-size: 14px;&quot;&gt;회원 로그인&lt;/font&gt;" style="ellipse;whiteSpace=wrap;html=1;" vertex="1" parent="1">
          <mxGeometry x="280" y="90" width="140" height="60" as="geometry" />
        </mxCell>
        <mxCell id="uyNf84cTJ33dFZTHsCJ2-10" value="&lt;font style=&quot;font-size: 14px;&quot;&gt;회원 가입&lt;/font&gt;&lt;span style=&quot;color: rgba(0, 0, 0, 0); font-family: monospace; font-size: 0px; text-align: start; text-wrap-mode: nowrap;&quot;&gt;%3CmxGraphModel%3E%3Croot%3E%3CmxCell%20id%3D%220%22%2F%3E%3CmxCell%20id%3D%221%22%20parent%3D%220%22%2F%3E%3CmxCell%20id%3D%222%22%20value%3D%22%26lt%3Bfont%20style%3D%26quot%3Bfont-size%3A%2014px%3B%26quot%3B%26gt%3B%ED%9A%8C%EC%9B%90%20%EB%A1%9C%EA%B7%B8%EC%9D%B8%26lt%3B%2Ffont%26gt%3B%22%20style%3D%22ellipse%3BwhiteSpace%3Dwrap%3Bhtml%3D1%3B%22%20vertex%3D%221%22%20parent%3D%221%22%3E%3CmxGeometry%20x%3D%22240%22%20y%3D%22110%22%20width%3D%22140%22%20height%3D%2260%22%20as%3D%22geometry%22%2F%3E%3C%2FmxCell%3E%3C%2Froot%3E%3C%2FmxGraphModel%3E&lt;/span&gt;" style="ellipse;whiteSpace=wrap;html=1;" vertex="1" parent="1">
          <mxGeometry x="200" y="262" width="140" height="60" as="geometry" />
        </mxCell>
        <mxCell id="uyNf84cTJ33dFZTHsCJ2-41" style="edgeStyle=none;shape=connector;rounded=0;orthogonalLoop=1;jettySize=auto;html=1;entryX=0.5;entryY=1;entryDx=0;entryDy=0;dashed=1;strokeColor=default;align=center;verticalAlign=middle;fontFamily=Helvetica;fontSize=11;fontColor=default;labelBackgroundColor=default;startArrow=none;startFill=0;endArrow=classic;endFill=1;" edge="1" parent="1" source="uyNf84cTJ33dFZTHsCJ2-11" target="uyNf84cTJ33dFZTHsCJ2-3">
          <mxGeometry relative="1" as="geometry">
            <Array as="points" />
          </mxGeometry>
        </mxCell>
        <mxCell id="uyNf84cTJ33dFZTHsCJ2-45" value="&amp;lt;&amp;lt;include&amp;gt;&amp;gt;" style="edgeLabel;html=1;align=center;verticalAlign=middle;resizable=0;points=[];fontFamily=Helvetica;fontSize=11;fontColor=default;labelBackgroundColor=default;" vertex="1" connectable="0" parent="uyNf84cTJ33dFZTHsCJ2-41">
          <mxGeometry x="0.0528" y="-3" relative="1" as="geometry">
            <mxPoint as="offset" />
          </mxGeometry>
        </mxCell>
        <mxCell id="uyNf84cTJ33dFZTHsCJ2-11" value="&lt;font style=&quot;font-size: 14px;&quot;&gt;게시판 보기&lt;/font&gt;" style="ellipse;whiteSpace=wrap;html=1;" vertex="1" parent="1">
          <mxGeometry x="200" y="382" width="140" height="60" as="geometry" />
        </mxCell>
        <mxCell id="uyNf84cTJ33dFZTHsCJ2-13" value="&lt;font style=&quot;font-size: 14px;&quot;&gt;게시글 보기&lt;/font&gt;" style="ellipse;whiteSpace=wrap;html=1;" vertex="1" parent="1">
          <mxGeometry x="200" y="550" width="140" height="60" as="geometry" />
        </mxCell>
        <mxCell id="uyNf84cTJ33dFZTHsCJ2-14" value="&lt;font style=&quot;font-size: 14px;&quot;&gt;인증&lt;/font&gt;" style="ellipse;whiteSpace=wrap;html=1;" vertex="1" parent="1">
          <mxGeometry x="500" y="90" width="140" height="60" as="geometry" />
        </mxCell>
        <mxCell id="uyNf84cTJ33dFZTHsCJ2-35" style="edgeStyle=none;shape=connector;rounded=0;orthogonalLoop=1;jettySize=auto;html=1;exitX=0;exitY=0.5;exitDx=0;exitDy=0;dashed=1;strokeColor=default;align=center;verticalAlign=middle;fontFamily=Helvetica;fontSize=11;fontColor=default;labelBackgroundColor=default;startArrow=none;startFill=0;endArrow=classic;endFill=1;" edge="1" parent="1" source="uyNf84cTJ33dFZTHsCJ2-15" target="uyNf84cTJ33dFZTHsCJ2-3">
          <mxGeometry relative="1" as="geometry" />
        </mxCell>
        <mxCell id="uyNf84cTJ33dFZTHsCJ2-36" value="&amp;lt;&amp;lt;extend&amp;gt;&amp;gt;" style="edgeLabel;html=1;align=center;verticalAlign=middle;resizable=0;points=[];fontFamily=Helvetica;fontSize=11;fontColor=default;labelBackgroundColor=default;" vertex="1" connectable="0" parent="uyNf84cTJ33dFZTHsCJ2-35">
          <mxGeometry x="-0.0289" y="-1" relative="1" as="geometry">
            <mxPoint as="offset" />
          </mxGeometry>
        </mxCell>
        <mxCell id="uyNf84cTJ33dFZTHsCJ2-15" value="&lt;span style=&quot;font-size: 14px;&quot;&gt;로그인 실패&lt;/span&gt;" style="ellipse;whiteSpace=wrap;html=1;" vertex="1" parent="1">
          <mxGeometry x="500" y="170" width="140" height="60" as="geometry" />
        </mxCell>
        <mxCell id="uyNf84cTJ33dFZTHsCJ2-29" style="edgeStyle=none;shape=connector;rounded=0;orthogonalLoop=1;jettySize=auto;html=1;exitX=0;exitY=0.5;exitDx=0;exitDy=0;entryX=1;entryY=0.5;entryDx=0;entryDy=0;dashed=1;strokeColor=default;align=center;verticalAlign=middle;fontFamily=Helvetica;fontSize=11;fontColor=default;labelBackgroundColor=default;startArrow=none;startFill=0;endArrow=classic;endFill=1;" edge="1" parent="1" source="uyNf84cTJ33dFZTHsCJ2-16" target="uyNf84cTJ33dFZTHsCJ2-11">
          <mxGeometry relative="1" as="geometry" />
        </mxCell>
        <mxCell id="uyNf84cTJ33dFZTHsCJ2-37" value="&amp;lt;&amp;lt;extend&amp;gt;&amp;gt;" style="edgeLabel;html=1;align=center;verticalAlign=middle;resizable=0;points=[];fontFamily=Helvetica;fontSize=11;fontColor=default;labelBackgroundColor=default;" vertex="1" connectable="0" parent="uyNf84cTJ33dFZTHsCJ2-29">
          <mxGeometry x="-0.0425" y="5" relative="1" as="geometry">
            <mxPoint as="offset" />
          </mxGeometry>
        </mxCell>
        <mxCell id="uyNf84cTJ33dFZTHsCJ2-16" value="&lt;font style=&quot;font-size: 14px;&quot;&gt;게시판 정렬&lt;/font&gt;" style="ellipse;whiteSpace=wrap;html=1;" vertex="1" parent="1">
          <mxGeometry x="400" y="350" width="140" height="60" as="geometry" />
        </mxCell>
        <mxCell id="uyNf84cTJ33dFZTHsCJ2-30" style="edgeStyle=none;shape=connector;rounded=0;orthogonalLoop=1;jettySize=auto;html=1;exitX=0;exitY=0.5;exitDx=0;exitDy=0;entryX=1;entryY=1;entryDx=0;entryDy=0;dashed=1;strokeColor=default;align=center;verticalAlign=middle;fontFamily=Helvetica;fontSize=11;fontColor=default;labelBackgroundColor=default;startArrow=none;startFill=0;endArrow=classic;endFill=1;" edge="1" parent="1" source="uyNf84cTJ33dFZTHsCJ2-17" target="uyNf84cTJ33dFZTHsCJ2-11">
          <mxGeometry relative="1" as="geometry" />
        </mxCell>
        <mxCell id="uyNf84cTJ33dFZTHsCJ2-38" value="&amp;lt;&amp;lt;extend&amp;gt;&amp;gt;" style="edgeLabel;html=1;align=center;verticalAlign=middle;resizable=0;points=[];fontFamily=Helvetica;fontSize=11;fontColor=default;labelBackgroundColor=default;" vertex="1" connectable="0" parent="uyNf84cTJ33dFZTHsCJ2-30">
          <mxGeometry x="-0.4335" y="-3" relative="1" as="geometry">
            <mxPoint as="offset" />
          </mxGeometry>
        </mxCell>
        <mxCell id="uyNf84cTJ33dFZTHsCJ2-17" value="&lt;span style=&quot;font-size: 14px;&quot;&gt;게시판 검색&lt;/span&gt;" style="ellipse;whiteSpace=wrap;html=1;" vertex="1" parent="1">
          <mxGeometry x="400" y="430" width="140" height="60" as="geometry" />
        </mxCell>
        <mxCell id="uyNf84cTJ33dFZTHsCJ2-31" style="edgeStyle=none;shape=connector;rounded=0;orthogonalLoop=1;jettySize=auto;html=1;exitX=0;exitY=0.5;exitDx=0;exitDy=0;entryX=1;entryY=0.5;entryDx=0;entryDy=0;dashed=1;strokeColor=default;align=center;verticalAlign=middle;fontFamily=Helvetica;fontSize=11;fontColor=default;labelBackgroundColor=default;startArrow=none;startFill=0;endArrow=classic;endFill=1;" edge="1" parent="1" source="uyNf84cTJ33dFZTHsCJ2-18" target="uyNf84cTJ33dFZTHsCJ2-13">
          <mxGeometry relative="1" as="geometry" />
        </mxCell>
        <mxCell id="uyNf84cTJ33dFZTHsCJ2-39" value="&amp;lt;&amp;lt;extend&amp;gt;&amp;gt;" style="edgeLabel;html=1;align=center;verticalAlign=middle;resizable=0;points=[];fontFamily=Helvetica;fontSize=11;fontColor=default;labelBackgroundColor=default;" vertex="1" connectable="0" parent="uyNf84cTJ33dFZTHsCJ2-31">
          <mxGeometry x="-0.1216" y="3" relative="1" as="geometry">
            <mxPoint as="offset" />
          </mxGeometry>
        </mxCell>
        <mxCell id="uyNf84cTJ33dFZTHsCJ2-18" value="&lt;font style=&quot;font-size: 12px;&quot;&gt;게시글 쓰기, 수정, 삭제&lt;/font&gt;" style="ellipse;whiteSpace=wrap;html=1;" vertex="1" parent="1">
          <mxGeometry x="400" y="550" width="140" height="60" as="geometry" />
        </mxCell>
        <mxCell id="uyNf84cTJ33dFZTHsCJ2-32" style="edgeStyle=none;shape=connector;rounded=0;orthogonalLoop=1;jettySize=auto;html=1;exitX=0;exitY=0.5;exitDx=0;exitDy=0;entryX=1;entryY=1;entryDx=0;entryDy=0;dashed=1;strokeColor=default;align=center;verticalAlign=middle;fontFamily=Helvetica;fontSize=11;fontColor=default;labelBackgroundColor=default;startArrow=none;startFill=0;endArrow=classic;endFill=1;" edge="1" parent="1" source="uyNf84cTJ33dFZTHsCJ2-19" target="uyNf84cTJ33dFZTHsCJ2-13">
          <mxGeometry relative="1" as="geometry" />
        </mxCell>
        <mxCell id="uyNf84cTJ33dFZTHsCJ2-40" value="&amp;lt;&amp;lt;extend&amp;gt;&amp;gt;" style="edgeLabel;html=1;align=center;verticalAlign=middle;resizable=0;points=[];fontFamily=Helvetica;fontSize=11;fontColor=default;labelBackgroundColor=default;" vertex="1" connectable="0" parent="uyNf84cTJ33dFZTHsCJ2-32">
          <mxGeometry x="-0.2372" y="3" relative="1" as="geometry">
            <mxPoint as="offset" />
          </mxGeometry>
        </mxCell>
        <mxCell id="uyNf84cTJ33dFZTHsCJ2-19" value="&lt;font style=&quot;font-size: 12px;&quot;&gt;댓글보기, 쓰기, 수정, 삭제&lt;/font&gt;" style="ellipse;whiteSpace=wrap;html=1;" vertex="1" parent="1">
          <mxGeometry x="400" y="630" width="150" height="60" as="geometry" />
        </mxCell>
        <mxCell id="uyNf84cTJ33dFZTHsCJ2-26" style="edgeStyle=none;shape=connector;rounded=0;orthogonalLoop=1;jettySize=auto;html=1;entryX=-0.003;entryY=0.643;entryDx=0;entryDy=0;entryPerimeter=0;strokeColor=default;align=center;verticalAlign=middle;fontFamily=Helvetica;fontSize=11;fontColor=default;labelBackgroundColor=default;startArrow=none;startFill=0;endArrow=none;" edge="1" parent="1" source="uyNf84cTJ33dFZTHsCJ2-1" target="uyNf84cTJ33dFZTHsCJ2-13">
          <mxGeometry relative="1" as="geometry" />
        </mxCell>
        <mxCell id="uyNf84cTJ33dFZTHsCJ2-42" style="edgeStyle=none;shape=connector;rounded=0;orthogonalLoop=1;jettySize=auto;html=1;entryX=0.676;entryY=0.963;entryDx=0;entryDy=0;entryPerimeter=0;dashed=1;strokeColor=default;align=center;verticalAlign=middle;fontFamily=Helvetica;fontSize=11;fontColor=default;labelBackgroundColor=default;startArrow=none;startFill=0;endArrow=classic;endFill=1;" edge="1" parent="1" source="uyNf84cTJ33dFZTHsCJ2-13" target="uyNf84cTJ33dFZTHsCJ2-3">
          <mxGeometry relative="1" as="geometry" />
        </mxCell>
        <mxCell id="uyNf84cTJ33dFZTHsCJ2-46" value="&amp;lt;&amp;lt;include&amp;gt;&amp;gt;" style="edgeLabel;html=1;align=center;verticalAlign=middle;resizable=0;points=[];fontFamily=Helvetica;fontSize=11;fontColor=default;labelBackgroundColor=default;" vertex="1" connectable="0" parent="uyNf84cTJ33dFZTHsCJ2-42">
          <mxGeometry x="0.0095" y="1" relative="1" as="geometry">
            <mxPoint as="offset" />
          </mxGeometry>
        </mxCell>
      </root>
    </mxGraphModel>
  </diagram>
</mxfile>
